<svg width="21" height="20" viewBox="0 0 21 20" fill="none" xmlns="http://www.w3.org/2000/svg">
<path d="M11.9602 9.99982C11.9602 11.0569 11.0999 11.9139 10.0387 11.9139C8.97745 11.9139 8.11719 11.0569 8.11719 9.99982C8.11719 8.94269 8.97745 8.08575 10.0387 8.08575C11.0999 8.08575 11.9602 8.94269 11.9602 9.99982Z" fill="black"/>
<path d="M11.9602 9.99982C11.9602 11.0569 11.0999 11.9139 10.0387 11.9139C8.97745 11.9139 8.11719 11.0569 8.11719 9.99982C8.11719 8.94269 8.97745 8.08575 10.0387 8.08575C11.0999 8.08575 11.9602 8.94269 11.9602 9.99982Z" fill="black" fill-opacity="0.4"/>
<path d="M14.5321 6.61288C14.4398 6.36356 14.2924 6.13788 14.1009 5.95264C13.915 5.7619 13.6886 5.61511 13.4381 5.5231C13.235 5.44452 12.9299 5.35098 12.3679 5.3255C11.7599 5.29788 11.5776 5.29193 10.0384 5.29193C8.49912 5.29193 8.31684 5.29773 7.70901 5.32535C7.14699 5.35098 6.8417 5.44452 6.63874 5.5231C6.38829 5.61511 6.16173 5.7619 5.97593 5.95264C5.78445 6.13788 5.63709 6.3634 5.54457 6.61288C5.46568 6.81522 5.37178 7.11932 5.3462 7.67917C5.31847 8.28464 5.3125 8.46622 5.3125 9.99957C5.3125 11.5328 5.31847 11.7144 5.3462 12.32C5.37178 12.8798 5.46568 13.1838 5.54457 13.3861C5.63709 13.6356 5.7843 13.8611 5.97577 14.0464C6.16173 14.2371 6.38814 14.3839 6.63859 14.4759C6.8417 14.5546 7.14699 14.6482 7.70901 14.6736C8.31684 14.7013 8.49897 14.7071 10.0383 14.7071C11.5778 14.7071 11.76 14.7013 12.3677 14.6736C12.9297 14.6482 13.235 14.5546 13.4381 14.4759C13.9409 14.2827 14.3382 13.8869 14.5321 13.3861C14.611 13.1838 14.7049 12.8798 14.7307 12.32C14.7584 11.7144 14.7642 11.5328 14.7642 9.99957C14.7642 8.46622 14.7584 8.28464 14.7307 7.67917C14.7051 7.11932 14.6112 6.81522 14.5321 6.61288ZM10.0384 12.948C8.40354 12.948 7.07822 11.628 7.07822 9.99942C7.07822 8.37085 8.40354 7.05081 10.0384 7.05081C11.6732 7.05081 12.9985 8.37085 12.9985 9.99942C12.9985 11.628 11.6732 12.948 10.0384 12.948ZM13.1155 7.62332C12.7335 7.62332 12.4238 7.31479 12.4238 6.93423C12.4238 6.55368 12.7335 6.24515 13.1155 6.24515C13.4976 6.24515 13.8073 6.55368 13.8073 6.93423C13.8071 7.31479 13.4976 7.62332 13.1155 7.62332Z" fill="black"/>
<path d="M14.5321 6.61288C14.4398 6.36356 14.2924 6.13788 14.1009 5.95264C13.915 5.7619 13.6886 5.61511 13.4381 5.5231C13.235 5.44452 12.9299 5.35098 12.3679 5.3255C11.7599 5.29788 11.5776 5.29193 10.0384 5.29193C8.49912 5.29193 8.31684 5.29773 7.70901 5.32535C7.14699 5.35098 6.8417 5.44452 6.63874 5.5231C6.38829 5.61511 6.16173 5.7619 5.97593 5.95264C5.78445 6.13788 5.63709 6.3634 5.54457 6.61288C5.46568 6.81522 5.37178 7.11932 5.3462 7.67917C5.31847 8.28464 5.3125 8.46622 5.3125 9.99957C5.3125 11.5328 5.31847 11.7144 5.3462 12.32C5.37178 12.8798 5.46568 13.1838 5.54457 13.3861C5.63709 13.6356 5.7843 13.8611 5.97577 14.0464C6.16173 14.2371 6.38814 14.3839 6.63859 14.4759C6.8417 14.5546 7.14699 14.6482 7.70901 14.6736C8.31684 14.7013 8.49897 14.7071 10.0383 14.7071C11.5778 14.7071 11.76 14.7013 12.3677 14.6736C12.9297 14.6482 13.235 14.5546 13.4381 14.4759C13.9409 14.2827 14.3382 13.8869 14.5321 13.3861C14.611 13.1838 14.7049 12.8798 14.7307 12.32C14.7584 11.7144 14.7642 11.5328 14.7642 9.99957C14.7642 8.46622 14.7584 8.28464 14.7307 7.67917C14.7051 7.11932 14.6112 6.81522 14.5321 6.61288ZM10.0384 12.948C8.40354 12.948 7.07822 11.628 7.07822 9.99942C7.07822 8.37085 8.40354 7.05081 10.0384 7.05081C11.6732 7.05081 12.9985 8.37085 12.9985 9.99942C12.9985 11.628 11.6732 12.948 10.0384 12.948ZM13.1155 7.62332C12.7335 7.62332 12.4238 7.31479 12.4238 6.93423C12.4238 6.55368 12.7335 6.24515 13.1155 6.24515C13.4976 6.24515 13.8073 6.55368 13.8073 6.93423C13.8071 7.31479 13.4976 7.62332 13.1155 7.62332Z" fill="black" fill-opacity="0.4"/>
<path d="M10.0389 0C4.4954 0 0 4.478 0 10C0 15.522 4.4954 20 10.0389 20C15.5823 20 20.0777 15.522 20.0777 10C20.0777 4.478 15.5823 0 10.0389 0ZM15.7686 12.3674C15.7407 12.9787 15.6431 13.396 15.5007 13.7613C15.2012 14.5326 14.5891 15.1424 13.8148 15.4407C13.4482 15.5826 13.0291 15.6796 12.4156 15.7076C11.8009 15.7355 11.6045 15.7422 10.039 15.7422C8.47335 15.7422 8.27713 15.7355 7.66226 15.7076C7.04877 15.6796 6.62967 15.5826 6.26311 15.4407C5.87831 15.2965 5.52998 15.0705 5.242 14.7783C4.94881 14.4916 4.72195 14.1444 4.5772 13.7613C4.43474 13.3961 4.33716 12.9787 4.30928 12.3676C4.28095 11.7551 4.27436 11.5594 4.27436 10C4.27436 8.44055 4.28095 8.24493 4.30913 7.6326C4.33701 7.02133 4.43443 6.604 4.57689 6.23871C4.72165 5.85556 4.94866 5.50842 5.242 5.22171C5.52983 4.9295 5.87831 4.70352 6.26295 4.55933C6.62967 4.41742 7.04862 4.32037 7.66226 4.29245C8.27697 4.26453 8.47335 4.25781 10.0389 4.25781C11.6044 4.25781 11.8007 4.26453 12.4155 4.2926C13.0291 4.32037 13.4481 4.41742 13.8148 4.55917C14.1994 4.70337 14.5479 4.9295 14.8359 5.22171C15.1291 5.50858 15.3561 5.85556 15.5007 6.23871C15.6433 6.604 15.7407 7.02133 15.7687 7.6326C15.7968 8.24493 15.8034 8.44055 15.8034 10C15.8034 11.5594 15.7968 11.7551 15.7686 12.3674Z" fill="black"/>
<path d="M10.0389 0C4.4954 0 0 4.478 0 10C0 15.522 4.4954 20 10.0389 20C15.5823 20 20.0777 15.522 20.0777 10C20.0777 4.478 15.5823 0 10.0389 0ZM15.7686 12.3674C15.7407 12.9787 15.6431 13.396 15.5007 13.7613C15.2012 14.5326 14.5891 15.1424 13.8148 15.4407C13.4482 15.5826 13.0291 15.6796 12.4156 15.7076C11.8009 15.7355 11.6045 15.7422 10.039 15.7422C8.47335 15.7422 8.27713 15.7355 7.66226 15.7076C7.04877 15.6796 6.62967 15.5826 6.26311 15.4407C5.87831 15.2965 5.52998 15.0705 5.242 14.7783C4.94881 14.4916 4.72195 14.1444 4.5772 13.7613C4.43474 13.3961 4.33716 12.9787 4.30928 12.3676C4.28095 11.7551 4.27436 11.5594 4.27436 10C4.27436 8.44055 4.28095 8.24493 4.30913 7.6326C4.33701 7.02133 4.43443 6.604 4.57689 6.23871C4.72165 5.85556 4.94866 5.50842 5.242 5.22171C5.52983 4.9295 5.87831 4.70352 6.26295 4.55933C6.62967 4.41742 7.04862 4.32037 7.66226 4.29245C8.27697 4.26453 8.47335 4.25781 10.0389 4.25781C11.6044 4.25781 11.8007 4.26453 12.4155 4.2926C13.0291 4.32037 13.4481 4.41742 13.8148 4.55917C14.1994 4.70337 14.5479 4.9295 14.8359 5.22171C15.1291 5.50858 15.3561 5.85556 15.5007 6.23871C15.6433 6.604 15.7407 7.02133 15.7687 7.6326C15.7968 8.24493 15.8034 8.44055 15.8034 10C15.8034 11.5594 15.7968 11.7551 15.7686 12.3674Z" fill="black" fill-opacity="0.4"/>
</svg>
