<svg width="59" height="69" viewBox="0 0 59 69" fill="none" xmlns="http://www.w3.org/2000/svg">
<path d="M47.6963 0.047376L10.6247 5.96704C9.64565 6.14087 8.77405 6.69228 8.19762 7.50251C7.6212 8.31273 7.38606 9.31694 7.54285 10.2989C7.69964 11.2808 8.23582 12.1618 9.03591 12.7522C9.836 13.3427 10.836 13.5952 11.8205 13.4555L39.8519 8.9794L0.720581 62.9826C0.130437 63.797 -0.112005 64.8125 0.0465874 65.8057C0.20518 66.7989 0.751818 67.6884 1.56625 68.2785C2.38067 68.8687 3.39618 69.1111 4.38936 68.9525C5.38254 68.7939 6.27205 68.2473 6.86219 67.4329L45.9935 13.4297L50.4696 41.4611C50.5404 41.9597 50.7097 42.4392 50.9677 42.8716C51.2258 43.304 51.5673 43.6807 51.9725 43.9797C52.3777 44.2787 52.8383 44.494 53.3276 44.613C53.8169 44.7321 54.325 44.7525 54.8222 44.6731C55.3195 44.5937 55.7959 44.4161 56.2238 44.1506C56.6517 43.8851 57.0224 43.537 57.3143 43.1267C57.6062 42.7164 57.8135 42.252 57.924 41.7608C58.0345 41.2695 58.0461 40.7612 57.9581 40.2654L52.0384 3.19372C51.8797 2.20076 51.3331 1.31149 50.5189 0.721462C49.7046 0.131435 48.6893 -0.111038 47.6963 0.047376Z" fill="#E8E3DF"/>
</svg>
