<svg width="12" height="10" viewBox="0 0 12 10" fill="none" xmlns="http://www.w3.org/2000/svg">
<path d="M11.2009 1.24392L10.5366 7.51788C10.5161 7.68378 10.4312 7.83617 10.3001 7.94224C10.169 8.04831 10.0023 8.09957 9.83585 8.08497C9.66938 8.07037 9.51649 7.99109 9.41009 7.8642C9.30369 7.73731 9.25231 7.57296 9.26701 7.40656L9.76931 2.66255L1.04012 9.8513C0.908471 9.95971 0.739919 10.0123 0.57154 9.99756C0.403162 9.98279 0.24875 9.90186 0.142272 9.77257C0.035795 9.64328 -0.0140252 9.47621 0.00377196 9.30813C0.0215688 9.14004 0.105525 8.9847 0.237171 8.87629L8.96636 1.68754L4.21407 1.27084C4.12963 1.26492 4.04751 1.24226 3.97252 1.20421C3.89752 1.16616 3.83115 1.11346 3.77727 1.0492C3.72339 0.984945 3.68308 0.910408 3.6587 0.829942C3.63432 0.749476 3.62635 0.664692 3.63526 0.580538C3.64417 0.496384 3.66978 0.414544 3.7106 0.339795C3.75141 0.265046 3.80662 0.198884 3.87299 0.145169C3.93936 0.0914553 4.01557 0.0512639 4.09717 0.0269413C4.17877 0.00261871 4.26412 -0.00534911 4.34826 0.00350344L10.6332 0.554589C10.8015 0.569376 10.9559 0.650302 11.0623 0.77957C11.1688 0.908839 11.2186 1.07586 11.2009 1.24392Z" fill="#F0AE2C"/>
</svg>
