<svg width="24" height="24" viewBox="0 0 24 24" fill="none" xmlns="http://www.w3.org/2000/svg">
<path d="M21.0635 12.5C21.6591 11.4704 22 10.275 22 9C22 5.13401 18.866 2 15 2C11.134 2 8 5.13401 8 9C8 12.866 11.134 16 15 16C16.0736 16 17.0907 15.7583 18 15.3264" stroke="#1C274C" stroke-width="1.5" stroke-linecap="round"/>
<path d="M15 11C16.1046 11 17 10.1046 17 9C17 7.89543 16.1046 7 15 7C13.8954 7 13 7.89543 13 9C13 10.1046 13.8954 11 15 11Z" stroke="#1C274C" stroke-width="1.5"/>
<path d="M3.5 20.5L9.5 14.5" stroke="#1C274C" stroke-width="1.5" stroke-linecap="round"/>
<path d="M6 21L4.5 19.5M6.5 17.5L8 19" stroke="#1C274C" stroke-width="1.5" stroke-linecap="round"/>
</svg>
