<svg width="16" height="17" viewBox="0 0 16 17" fill="none" xmlns="http://www.w3.org/2000/svg">
<mask id="path-1-inside-1_33_2108" fill="white">
<path d="M0.371036 16.0129L-0.000174902 6.09519C-0.00544461 5.83229 0.0926366 5.57597 0.272945 5.38146C0.453253 5.18694 0.701361 5.06978 0.963831 5.05521C1.2263 5.04065 1.48213 5.12984 1.67622 5.30358C1.87032 5.47732 1.98714 5.72171 2.00153 5.9841L2.28222 13.4833L14.2636 0.33444C14.4443 0.13614 14.6949 0.016459 14.9604 0.00172568C15.2259 -0.0130073 15.4845 0.0784139 15.6792 0.255878C15.874 0.433342 15.989 0.682312 15.9989 0.948017C16.0089 1.21372 15.913 1.4744 15.7323 1.6727L3.75088 14.8216L11.2438 14.4058C11.3766 14.3961 11.5096 14.413 11.6349 14.4554C11.7602 14.4979 11.8753 14.565 11.9736 14.653C12.0719 14.741 12.1514 14.848 12.2074 14.9679C12.2633 15.0877 12.2947 15.2179 12.2997 15.3509C12.3047 15.484 12.2832 15.6171 12.2364 15.7427C12.1896 15.8682 12.1184 15.9836 12.0271 16.0821C11.9358 16.1806 11.8261 16.2602 11.7045 16.3164C11.5829 16.3726 11.4518 16.4041 11.3188 16.4091L1.40938 16.9591C1.14395 16.9738 0.885452 16.8823 0.690733 16.7049C0.496015 16.5275 0.381019 16.2786 0.371036 16.0129Z"/>
</mask>
<path d="M0.371036 16.0129L-0.000174902 6.09519C-0.00544461 5.83229 0.0926366 5.57597 0.272945 5.38146C0.453253 5.18694 0.701361 5.06978 0.963831 5.05521C1.2263 5.04065 1.48213 5.12984 1.67622 5.30358C1.87032 5.47732 1.98714 5.72171 2.00153 5.9841L2.28222 13.4833L14.2636 0.33444C14.4443 0.13614 14.6949 0.016459 14.9604 0.00172568C15.2259 -0.0130073 15.4845 0.0784139 15.6792 0.255878C15.874 0.433342 15.989 0.682312 15.9989 0.948017C16.0089 1.21372 15.913 1.4744 15.7323 1.6727L3.75088 14.8216L11.2438 14.4058C11.3766 14.3961 11.5096 14.413 11.6349 14.4554C11.7602 14.4979 11.8753 14.565 11.9736 14.653C12.0719 14.741 12.1514 14.848 12.2074 14.9679C12.2633 15.0877 12.2947 15.2179 12.2997 15.3509C12.3047 15.484 12.2832 15.6171 12.2364 15.7427C12.1896 15.8682 12.1184 15.9836 12.0271 16.0821C11.9358 16.1806 11.8261 16.2602 11.7045 16.3164C11.5829 16.3726 11.4518 16.4041 11.3188 16.4091L1.40938 16.9591C1.14395 16.9738 0.885452 16.8823 0.690733 16.7049C0.496015 16.5275 0.381019 16.2786 0.371036 16.0129Z" fill="#FBF7F7"/>
<path d="M0.371036 16.0129L-36.4392 17.3963L-36.4394 17.3907L0.371036 16.0129ZM-0.000174902 6.09519L-36.8106 7.47297L-36.8226 7.15325L-36.829 6.83337L-0.000174902 6.09519ZM2.00153 5.9841L38.7825 3.96674L38.8 4.2864L38.812 4.60632L2.00153 5.9841ZM2.28222 13.4833L29.5101 38.2936L-31.1591 104.875L-34.5282 14.8611L2.28222 13.4833ZM15.6792 0.255878L40.4895 -26.972L15.6792 0.255878ZM3.75088 14.8216L5.792 51.6012L-84.1463 56.5924L-23.477 -9.98868L3.75088 14.8216ZM11.2438 14.4058L13.9235 51.1444L13.6044 51.1677L13.2849 51.1854L11.2438 14.4058ZM11.3188 16.4091L9.27771 -20.3705L9.59736 -20.3882L9.91727 -20.4004L11.3188 16.4091ZM1.40938 16.9591L3.4505 53.7387L3.44494 53.739L1.40938 16.9591ZM-36.4394 17.3907L-36.8106 7.47297L36.8103 4.71741L37.1815 14.6352L-36.4394 17.3907ZM-36.829 6.83337C-37.0273 -3.06144 -33.3465 -12.5355 -26.7422 -19.6603L27.2881 30.4232C33.5318 23.6875 37.0164 14.726 36.8287 5.35701L-36.829 6.83337ZM-26.7422 -19.6603C-20.1377 -26.7853 -10.9661 -31.1756 -1.07728 -31.7244L3.00495 41.8349C12.3688 41.3152 21.0442 37.1592 27.2881 30.4232L-26.7422 -19.6603ZM-1.07728 -31.7244C8.84166 -32.2749 18.6953 -28.9005 26.2446 -22.1428L-22.8922 32.7499C-15.731 39.1602 -6.38905 42.3562 3.00495 41.8349L-1.07728 -31.7244ZM26.2446 -22.1428C33.7944 -15.3846 38.238 -5.95987 38.7825 3.96674L-34.7794 8.00147C-34.2637 17.4033 -30.0538 26.3392 -22.8922 32.7499L26.2446 -22.1428ZM38.812 4.60632L39.0927 12.1056L-34.5282 14.8611L-34.8089 7.36188L38.812 4.60632ZM-24.9457 -11.3269L-12.9643 -24.4758L41.4915 25.1447L29.5101 38.2936L-24.9457 -11.3269ZM-12.9643 -24.4758C-6.34639 -31.7386 2.91755 -36.2229 12.9193 -36.7779L17.0015 36.7814C26.4723 36.2558 35.235 32.0109 41.4915 25.1447L-12.9643 -24.4758ZM12.9193 -36.7779C22.9526 -37.3347 32.9134 -33.8754 40.4895 -26.972L-9.13105 27.4838C-1.9445 34.0322 7.49922 37.3087 17.0015 36.7814L12.9193 -36.7779ZM40.4895 -26.972C48.0656 -20.0686 52.4335 -10.4715 52.8094 -0.429763L-20.8115 2.3258C-20.4556 11.8361 -16.3176 20.9353 -9.13105 27.4838L40.4895 -26.972ZM52.8094 -0.429763C53.1841 9.58038 49.5781 19.2202 42.9602 26.483L-11.4956 -23.1376C-17.7522 -16.2714 -21.1663 -7.15293 -20.8115 2.3258L52.8094 -0.429763ZM42.9602 26.483L30.9788 39.6319L-23.477 -9.98868L-11.4956 -23.1376L42.9602 26.483ZM1.70977 -21.958L9.20272 -22.3739L13.2849 51.1854L5.792 51.6012L1.70977 -21.958ZM8.56417 -22.3329C13.5721 -22.6981 18.6371 -22.0652 23.455 -20.4329L-0.185225 49.3437C4.38205 50.8911 9.1812 51.4903 13.9235 51.1444L8.56417 -22.3329ZM23.455 -20.4329C28.2745 -18.8001 32.7291 -16.2065 36.542 -12.7933L-12.5948 42.0994C-8.97842 45.3365 -4.75411 47.7958 -0.185225 49.3437L23.455 -20.4329ZM36.542 -12.7933C40.3551 -9.38004 43.4252 -5.23785 45.5802 -0.625775L-21.1655 30.5615C-19.1225 34.9339 -16.2113 38.862 -12.5948 42.0994L36.542 -12.7933ZM45.5802 -0.625775C47.7346 3.98491 48.9223 8.95218 49.1102 13.9732L-24.5107 16.7287C-24.3328 21.4836 -23.2079 26.1904 -21.1655 30.5615L45.5802 -0.625775ZM49.1102 13.9732C49.298 18.9918 48.4841 23.9651 46.7514 28.6121L-22.2787 2.87327C-23.9177 7.26919 -24.6886 11.9761 -24.5107 16.7287L49.1102 13.9732ZM46.7514 28.6121C45.0192 33.2577 42.3959 37.5059 39.0423 41.1238L-14.9881 -8.95965C-18.1591 -5.53872 -20.6401 -1.52134 -22.2787 2.87327L46.7514 28.6121ZM39.0423 41.1238C35.6885 44.7419 31.6503 47.6801 27.1471 49.7594L-3.738 -17.1266C-7.99798 -15.1596 -11.8169 -12.3807 -14.9881 -8.95965L39.0423 41.1238ZM27.1471 49.7594C22.6427 51.8393 17.7425 53.0275 12.7204 53.2187L9.91727 -20.4004C5.16112 -20.2193 0.523136 -19.0942 -3.738 -17.1266L27.1471 49.7594ZM13.3599 53.1888L3.4505 53.7387L-0.631733 -19.8206L9.27771 -20.3705L13.3599 53.1888ZM3.44494 53.739C-6.58658 54.2942 -16.545 50.8348 -24.1195 43.9328L25.501 -10.523C18.3159 -17.0701 8.87448 -20.3467 -0.626181 -19.8209L3.44494 53.739ZM-24.1195 43.9328C-31.694 37.0309 -36.0619 27.4361 -36.4392 17.3963L37.1813 14.6296C36.824 5.12111 32.6861 -3.97589 25.501 -10.523L-24.1195 43.9328Z" fill="#FBF7F7" mask="url(#path-1-inside-1_33_2108)"/>
</svg>
