<svg width="21" height="20" viewBox="0 0 21 20" fill="none" xmlns="http://www.w3.org/2000/svg">
<path d="M10.0389 0C8.05336 0 6.11245 0.58649 4.46157 1.6853C2.81069 2.78412 1.52398 4.3459 0.764167 6.17316C0.00434966 8.00042 -0.194453 10.0111 0.192898 11.9509C0.58025 13.8907 1.53636 15.6725 2.94032 17.0711C4.34428 18.4696 6.13303 19.422 8.08038 19.8078C10.0277 20.1937 12.0462 19.9957 13.8806 19.2388C15.7149 18.4819 17.2828 17.2002 18.3859 15.5557C19.489 13.9112 20.0777 11.9778 20.0777 10C20.0777 7.34783 19.0201 4.80429 17.1374 2.92893C15.2548 1.05357 12.7013 0 10.0389 0ZM7.11967 15.2632H4.92961V8.23552H7.11967V15.2632ZM6.02332 7.27631C5.77127 7.27735 5.52458 7.20393 5.31441 7.06533C5.10424 6.92674 4.94004 6.72918 4.84257 6.49765C4.74509 6.26611 4.71871 6.01098 4.76676 5.76452C4.81481 5.51805 4.93514 5.2913 5.11253 5.11294C5.28993 4.93458 5.51642 4.81261 5.76339 4.76245C6.01035 4.71229 6.26671 4.73619 6.50004 4.83113C6.73338 4.92606 6.93322 5.08778 7.07431 5.29583C7.2154 5.50388 7.2914 5.74893 7.29271 6C7.29341 6.33667 7.16028 6.65992 6.92241 6.89909C6.68454 7.13825 6.36129 7.27388 6.02332 7.27631ZM15.3225 15.2632H13.1337V11.8421C13.1337 11.0263 13.1179 9.98026 11.9951 9.98026C10.8724 9.98026 10.6742 10.8671 10.6742 11.7829V15.2632H8.49341V8.23552H10.595V9.19342H10.6253C10.9173 8.64079 11.6319 8.05789 12.6978 8.05789C14.9143 8.05789 15.3225 9.51316 15.3225 11.4026V15.2632Z" fill="black"/>
<path d="M10.0389 0C8.05336 0 6.11245 0.58649 4.46157 1.6853C2.81069 2.78412 1.52398 4.3459 0.764167 6.17316C0.00434966 8.00042 -0.194453 10.0111 0.192898 11.9509C0.58025 13.8907 1.53636 15.6725 2.94032 17.0711C4.34428 18.4696 6.13303 19.422 8.08038 19.8078C10.0277 20.1937 12.0462 19.9957 13.8806 19.2388C15.7149 18.4819 17.2828 17.2002 18.3859 15.5557C19.489 13.9112 20.0777 11.9778 20.0777 10C20.0777 7.34783 19.0201 4.80429 17.1374 2.92893C15.2548 1.05357 12.7013 0 10.0389 0ZM7.11967 15.2632H4.92961V8.23552H7.11967V15.2632ZM6.02332 7.27631C5.77127 7.27735 5.52458 7.20393 5.31441 7.06533C5.10424 6.92674 4.94004 6.72918 4.84257 6.49765C4.74509 6.26611 4.71871 6.01098 4.76676 5.76452C4.81481 5.51805 4.93514 5.2913 5.11253 5.11294C5.28993 4.93458 5.51642 4.81261 5.76339 4.76245C6.01035 4.71229 6.26671 4.73619 6.50004 4.83113C6.73338 4.92606 6.93322 5.08778 7.07431 5.29583C7.2154 5.50388 7.2914 5.74893 7.29271 6C7.29341 6.33667 7.16028 6.65992 6.92241 6.89909C6.68454 7.13825 6.36129 7.27388 6.02332 7.27631ZM15.3225 15.2632H13.1337V11.8421C13.1337 11.0263 13.1179 9.98026 11.9951 9.98026C10.8724 9.98026 10.6742 10.8671 10.6742 11.7829V15.2632H8.49341V8.23552H10.595V9.19342H10.6253C10.9173 8.64079 11.6319 8.05789 12.6978 8.05789C14.9143 8.05789 15.3225 9.51316 15.3225 11.4026V15.2632Z" fill="black" fill-opacity="0.4"/>
</svg>
