<svg width="21" height="20" viewBox="0 0 21 20" fill="none" xmlns="http://www.w3.org/2000/svg">
<path d="M8.78906 11.8736L12.0546 10.0001L8.78906 8.12662V11.8736Z" fill="black"/>
<path d="M8.78906 11.8736L12.0546 10.0001L8.78906 8.12662V11.8736Z" fill="black" fill-opacity="0.4"/>
<path d="M10.0389 0C4.4954 0 0 4.478 0 10C0 15.522 4.4954 20 10.0389 20C15.5823 20 20.0777 15.522 20.0777 10C20.0777 4.478 15.5823 0 10.0389 0ZM16.3116 10.0102C16.3116 10.0102 16.3116 12.0383 16.0534 13.0162C15.9086 13.5515 15.4849 13.9735 14.9475 14.1176C13.9658 14.375 10.0389 14.375 10.0389 14.375C10.0389 14.375 6.12218 14.375 5.13018 14.1074C4.59282 13.9633 4.16912 13.5411 4.02437 13.0058C3.76595 12.0383 3.76595 10 3.76595 10C3.76595 10 3.76595 7.97211 4.02437 6.99417C4.16897 6.45889 4.60308 6.02646 5.13018 5.88242C6.11192 5.625 10.0389 5.625 10.0389 5.625C10.0389 5.625 13.9658 5.625 14.9475 5.89264C15.4849 6.03668 15.9086 6.45889 16.0534 6.99417C16.322 7.97211 16.3116 10.0102 16.3116 10.0102Z" fill="black"/>
<path d="M10.0389 0C4.4954 0 0 4.478 0 10C0 15.522 4.4954 20 10.0389 20C15.5823 20 20.0777 15.522 20.0777 10C20.0777 4.478 15.5823 0 10.0389 0ZM16.3116 10.0102C16.3116 10.0102 16.3116 12.0383 16.0534 13.0162C15.9086 13.5515 15.4849 13.9735 14.9475 14.1176C13.9658 14.375 10.0389 14.375 10.0389 14.375C10.0389 14.375 6.12218 14.375 5.13018 14.1074C4.59282 13.9633 4.16912 13.5411 4.02437 13.0058C3.76595 12.0383 3.76595 10 3.76595 10C3.76595 10 3.76595 7.97211 4.02437 6.99417C4.16897 6.45889 4.60308 6.02646 5.13018 5.88242C6.11192 5.625 10.0389 5.625 10.0389 5.625C10.0389 5.625 13.9658 5.625 14.9475 5.89264C15.4849 6.03668 15.9086 6.45889 16.0534 6.99417C16.322 7.97211 16.3116 10.0102 16.3116 10.0102Z" fill="black" fill-opacity="0.4"/>
</svg>
