<svg width="1729" height="442" viewBox="0 0 1729 442" fill="none" xmlns="http://www.w3.org/2000/svg">
<line x1="4.37306e-08" y1="0.50022" x2="1720.76" y2="0.50037" stroke="#F0AE2C"/>
<circle cx="1628.96" cy="411.42" r="29.1985" transform="rotate(-140.381 1628.96 411.42)" stroke="#F0AE2C" stroke-width="1.62942"/>
<path d="M1619.51 410.762L1626.21 404.214C1626.39 404.043 1626.64 403.949 1626.89 403.952C1627.14 403.955 1627.38 404.054 1627.55 404.228C1627.73 404.403 1627.83 404.638 1627.83 404.884C1627.83 405.13 1627.73 405.367 1627.56 405.543L1622.49 410.495L1639.29 410.538C1639.54 410.538 1639.78 410.638 1639.96 410.814C1640.14 410.99 1640.24 411.229 1640.24 411.478C1640.24 411.727 1640.14 411.965 1639.96 412.14C1639.78 412.316 1639.54 412.414 1639.28 412.413L1622.49 412.37L1627.53 417.348C1627.62 417.434 1627.69 417.538 1627.74 417.653C1627.79 417.767 1627.82 417.89 1627.82 418.015C1627.82 418.139 1627.8 418.263 1627.75 418.378C1627.7 418.493 1627.63 418.598 1627.54 418.686C1627.45 418.773 1627.34 418.843 1627.22 418.89C1627.11 418.936 1626.98 418.96 1626.85 418.958C1626.73 418.957 1626.6 418.931 1626.49 418.881C1626.37 418.832 1626.26 418.76 1626.18 418.67L1619.51 412.088C1619.33 411.912 1619.23 411.673 1619.23 411.424C1619.23 411.176 1619.33 410.937 1619.51 410.762Z" fill="#F0AE2C"/>
<g opacity="0.5">
<circle cx="30" cy="30" r="29.1853" transform="matrix(0.770643 -0.637956 -0.637956 -0.770643 1695.01 453.678)" stroke="#F0AE2C" stroke-width="1.62942"/>
<path d="M1708.43 410.762L1701.73 404.214C1701.55 404.043 1701.31 403.949 1701.06 403.952C1700.81 403.955 1700.57 404.054 1700.39 404.228C1700.21 404.403 1700.11 404.638 1700.11 404.884C1700.11 405.13 1700.21 405.367 1700.38 405.543L1705.45 410.495L1688.65 410.538C1688.4 410.538 1688.16 410.638 1687.98 410.814C1687.8 410.99 1687.7 411.229 1687.7 411.478C1687.7 411.727 1687.8 411.965 1687.98 412.14C1688.16 412.316 1688.41 412.414 1688.66 412.413L1705.45 412.37L1700.41 417.348C1700.32 417.434 1700.25 417.538 1700.2 417.653C1700.15 417.767 1700.12 417.89 1700.12 418.015C1700.12 418.139 1700.15 418.263 1700.19 418.378C1700.24 418.493 1700.31 418.598 1700.4 418.686C1700.49 418.773 1700.6 418.843 1700.72 418.89C1700.83 418.936 1700.96 418.96 1701.09 418.958C1701.21 418.957 1701.34 418.931 1701.46 418.881C1701.57 418.832 1701.68 418.76 1701.77 418.67L1708.43 412.088C1708.61 411.912 1708.71 411.673 1708.71 411.424C1708.71 411.176 1708.61 410.937 1708.43 410.762Z" fill="#F0AE2C"/>
</g>
</svg>
