<svg width="12" height="10" viewBox="0 0 12 10" fill="none" xmlns="http://www.w3.org/2000/svg">
<path d="M11.2008 1.24394L10.5366 7.5179C10.5161 7.68379 10.4312 7.83619 10.3001 7.94226C10.169 8.04833 10.0023 8.09958 9.83584 8.08499C9.66938 8.07039 9.51648 7.99111 9.41008 7.86422C9.30369 7.73733 9.25231 7.57298 9.26701 7.40658L9.7693 2.66257L1.04012 9.85131C0.90847 9.95973 0.739919 10.0123 0.57154 9.99757C0.403161 9.98281 0.248749 9.90188 0.142272 9.77258C0.035795 9.64329 -0.0140252 9.47623 0.00377195 9.30814C0.0215688 9.14006 0.105525 8.98472 0.237171 8.87631L8.96636 1.68756L4.21407 1.27087C4.12962 1.26494 4.04751 1.24229 3.97251 1.20423C3.89752 1.16618 3.83114 1.11348 3.77726 1.04923C3.72338 0.984967 3.68308 0.91043 3.6587 0.829965C3.63431 0.749499 3.62635 0.664715 3.63526 0.580561C3.64417 0.496407 3.66978 0.414567 3.71059 0.339818C3.75141 0.265069 3.80661 0.198907 3.87298 0.145192C3.93935 0.0914783 4.01556 0.051287 4.09716 0.0269644C4.17876 0.00264183 4.26412 -0.00532598 4.34825 0.00352657L10.6332 0.554612C10.8015 0.569399 10.9559 0.650324 11.0623 0.779593C11.1688 0.908861 11.2186 1.07589 11.2008 1.24394Z" fill="#FBF7F7"/>
</svg>
