<svg width="24" height="24" viewBox="0 0 24 24" fill="none" xmlns="http://www.w3.org/2000/svg">
<path d="M17.0938 7.52813C17.0938 6.19956 16.567 4.99678 15.7219 4.09666C16.1779 3.43237 16.9365 3 17.8013 3C19.1927 3 20.3208 4.1281 20.3208 5.51956C20.3208 6.91101 19.1927 8.03911 17.8013 8.03911C17.5379 8.03911 17.2903 7.98801 17.0544 7.91333C17.0662 7.78755 17.0938 7.66177 17.0938 7.52813ZM12.0625 11.05C14.0082 11.05 15.5844 9.4738 15.5844 7.52813C15.5844 5.58245 14.0082 4.00625 12.0625 4.00625C10.1168 4.00625 8.54062 5.58245 8.54062 7.52813C8.54062 9.4738 10.1168 11.05 12.0625 11.05ZM12.0625 13.2001C7.75056 13.2001 6.025 14.0609 6.025 16.6512V20.1063H18.1V16.6512C18.1 14.0452 16.3744 13.2001 12.0625 13.2001ZM7.50293 9.62317C7.14131 9.59959 6.7561 9.58386 6.32373 9.58386C3.23816 9.58386 2 10.201 2 12.0523V15.075H4.72788C5.3843 12.8031 7.49507 12.0602 9.46433 11.8125C8.60745 11.2937 7.92351 10.5351 7.50293 9.62317ZM6.32373 8.04304C6.58708 8.04304 6.83472 7.99194 7.07056 7.91726C7.05876 7.78755 7.03125 7.66177 7.03125 7.52813C7.03125 6.19956 7.55796 4.99678 8.40305 4.09666C7.94709 3.4363 7.18848 3 6.32373 3C4.93228 3 3.80417 4.1281 3.80417 5.51956C3.80417 6.91101 4.92834 8.04304 6.32373 8.04304ZM17.8013 9.57993C17.3689 9.57993 16.9837 9.59565 16.6221 9.62317C16.2015 10.5351 15.5136 11.2937 14.6607 11.8125C16.6299 12.0563 18.7407 12.8031 19.3971 15.075H22.125V12.0523C22.125 10.1853 20.8908 9.57993 17.8013 9.57993Z" fill="#F0AE2C"/>
</svg>
