<svg width="61" height="69" viewBox="0 0 61 69" fill="none" xmlns="http://www.w3.org/2000/svg">
<path d="M52.8339 69H7.81023C3.56055 69 0 65.5543 0 61.1897V26.3882C0 24.0911 1.03371 21.9088 2.87141 20.4157L25.3833 1.80899C28.2547 -0.602996 32.3895 -0.602996 35.2609 1.80899L57.7728 20.3009C59.6105 21.794 60.6442 23.9763 60.6442 26.2734V61.0749C60.6442 65.5543 57.0836 69 52.8339 69ZM30.3221 4.6804C29.6329 4.6804 28.8289 4.91011 28.2547 5.36953L5.74282 23.9763C5.05368 24.5505 4.59425 25.4694 4.59425 26.3882V61.1897C4.59425 62.9126 5.97253 64.4057 7.81023 64.4057H52.8339C54.5568 64.4057 56.0499 63.0274 56.0499 61.1897V26.3882C56.0499 25.4694 55.5905 24.5505 54.9013 23.9763L32.3895 5.36953C31.8152 4.91011 31.0112 4.6804 30.3221 4.6804Z" fill="#E8E3DF"/>
</svg>
