<svg width="21" height="20" viewBox="0 0 21 20" fill="none" xmlns="http://www.w3.org/2000/svg">
<path d="M10.0389 0C4.50346 0 0 4.48602 0 10C0 15.5136 4.50346 20 10.0389 20C15.5739 20 20.0777 15.5136 20.0777 10C20.0777 4.48602 15.5747 0 10.0389 0ZM14.5172 7.71127C14.5217 7.81036 14.5241 7.91026 14.5241 8.01015C14.5241 11.0517 12.2006 14.5577 7.94949 14.5577C6.64459 14.5577 5.42986 14.1779 4.40762 13.5245C4.58837 13.5459 4.77236 13.5568 4.95877 13.5568C6.04167 13.5568 7.03764 13.1886 7.82858 12.5715C6.81766 12.553 5.96404 11.8875 5.67006 10.9728C5.81078 10.9994 5.95595 11.0143 6.10435 11.0143C6.31503 11.0143 6.51964 10.9869 6.71333 10.9341C5.65631 10.723 4.86011 9.79296 4.86011 8.67719C4.86011 8.66753 4.86011 8.65746 4.86051 8.64819C5.17188 8.82019 5.52813 8.92411 5.90662 8.93579C5.28712 8.52373 4.87911 7.81882 4.87911 7.02046C4.87911 6.59832 4.99274 6.20277 5.19169 5.86281C6.3308 7.2557 8.034 8.17167 9.95394 8.26835C9.91431 8.09957 9.8945 7.92435 9.8945 7.74349C9.8945 6.47265 10.9289 5.44188 12.2047 5.44188C12.8694 5.44188 13.4691 5.72142 13.8913 6.16853C14.4182 6.06542 14.9115 5.87449 15.3591 5.60984C15.1853 6.14759 14.8201 6.59832 14.3417 6.88351C14.8096 6.82792 15.256 6.70466 15.6689 6.52139C15.3608 6.9822 14.9689 7.38782 14.5172 7.71127Z" fill="black"/>
<path d="M10.0389 0C4.50346 0 0 4.48602 0 10C0 15.5136 4.50346 20 10.0389 20C15.5739 20 20.0777 15.5136 20.0777 10C20.0777 4.48602 15.5747 0 10.0389 0ZM14.5172 7.71127C14.5217 7.81036 14.5241 7.91026 14.5241 8.01015C14.5241 11.0517 12.2006 14.5577 7.94949 14.5577C6.64459 14.5577 5.42986 14.1779 4.40762 13.5245C4.58837 13.5459 4.77236 13.5568 4.95877 13.5568C6.04167 13.5568 7.03764 13.1886 7.82858 12.5715C6.81766 12.553 5.96404 11.8875 5.67006 10.9728C5.81078 10.9994 5.95595 11.0143 6.10435 11.0143C6.31503 11.0143 6.51964 10.9869 6.71333 10.9341C5.65631 10.723 4.86011 9.79296 4.86011 8.67719C4.86011 8.66753 4.86011 8.65746 4.86051 8.64819C5.17188 8.82019 5.52813 8.92411 5.90662 8.93579C5.28712 8.52373 4.87911 7.81882 4.87911 7.02046C4.87911 6.59832 4.99274 6.20277 5.19169 5.86281C6.3308 7.2557 8.034 8.17167 9.95394 8.26835C9.91431 8.09957 9.8945 7.92435 9.8945 7.74349C9.8945 6.47265 10.9289 5.44188 12.2047 5.44188C12.8694 5.44188 13.4691 5.72142 13.8913 6.16853C14.4182 6.06542 14.9115 5.87449 15.3591 5.60984C15.1853 6.14759 14.8201 6.59832 14.3417 6.88351C14.8096 6.82792 15.256 6.70466 15.6689 6.52139C15.3608 6.9822 14.9689 7.38782 14.5172 7.71127Z" fill="black" fill-opacity="0.4"/>
</svg>
