<svg width="21" height="15" viewBox="0 0 21 15" fill="none" xmlns="http://www.w3.org/2000/svg">
<path d="M0.281648 6.80692L6.98027 0.261502C7.16073 0.0911886 7.4021 -0.00269056 7.65237 8.45021e-05C7.90265 0.00285956 8.14181 0.102067 8.31835 0.276338C8.49488 0.45061 8.59467 0.686002 8.59622 0.931816C8.59777 1.17763 8.50095 1.4142 8.32662 1.59057L3.26151 6.53984L20.0483 6.5827C20.3014 6.58335 20.544 6.68274 20.7225 6.85901C20.9011 7.03528 21.001 7.274 21.0004 7.52264C20.9998 7.77127 20.8986 8.00947 20.7191 8.18483C20.5397 8.36019 20.2966 8.45834 20.0435 8.45769L3.25672 8.41483L8.29649 13.3899C8.38744 13.4766 8.4599 13.5803 8.50963 13.6948C8.55937 13.8093 8.58538 13.9324 8.58617 14.0568C8.58695 14.1813 8.56248 14.3047 8.51419 14.4198C8.4659 14.5349 8.39476 14.6394 8.30491 14.7272C8.21506 14.815 8.1083 14.8843 7.99087 14.9312C7.87344 14.978 7.74769 15.0014 7.62094 15C7.4942 14.9986 7.36901 14.9724 7.25268 14.923C7.13634 14.8735 7.0312 14.8018 6.94337 14.7121L0.278263 8.13254C0.0997614 7.95628 -0.000158215 7.71761 0.000476516 7.46902C0.00111125 7.22043 0.102248 6.98227 0.281648 6.80692Z" fill="#F0AE2C"/>
</svg>
