<svg width="16" height="17" viewBox="0 0 16 17" fill="none" xmlns="http://www.w3.org/2000/svg">
<path d="M15.629 0.947938L16.0002 10.8657C16.0054 11.1286 15.9074 11.3849 15.7271 11.5794C15.5467 11.7739 15.2986 11.8911 15.0362 11.9057C14.7737 11.9202 14.5179 11.831 14.3238 11.6573C14.1297 11.4836 14.0129 11.2392 13.9985 10.9768L13.7178 3.47754L1.73641 16.6264C1.55571 16.8247 1.30505 16.9444 1.03957 16.9591C0.774088 16.9739 0.515528 16.8825 0.320771 16.705C0.126014 16.5275 0.011014 16.2786 0.00106912 16.0129C-0.00887617 15.7471 0.0870487 15.4865 0.267741 15.2882L12.2491 2.13928L4.75617 2.55511C4.62335 2.56479 4.49042 2.54792 4.36512 2.50547C4.23983 2.46302 4.12467 2.39584 4.02638 2.30786C3.92809 2.21987 3.84863 2.11284 3.79264 1.99302C3.73665 1.87319 3.70525 1.74296 3.70027 1.60993C3.69529 1.4769 3.71684 1.34374 3.76364 1.2182C3.81045 1.09267 3.88158 0.977284 3.97289 0.878779C4.0642 0.780273 4.17386 0.70062 4.29547 0.644467C4.41708 0.588314 4.5482 0.556785 4.68118 0.551722L14.5906 0.00179003C14.8561 -0.0129002 15.1145 0.0785216 15.3093 0.255951C15.504 0.43338 15.619 0.682288 15.629 0.947938Z" fill="#F0AE2C"/>
</svg>
