<svg width="84" height="61" viewBox="0 0 84 61" fill="none" xmlns="http://www.w3.org/2000/svg">
<path d="M82.7578 27.7577L56.0704 1.07021C55.3513 0.375737 54.3883 -0.00854234 53.3887 0.000144122C52.389 0.00883058 51.4328 0.409788 50.7259 1.11666C50.0191 1.82352 49.6181 2.77974 49.6094 3.77937C49.6007 4.77899 49.985 5.74204 50.6795 6.46108L70.859 26.6406L3.8125 26.6406C2.80136 26.6406 1.83164 27.0423 1.11665 27.7573C0.401672 28.4723 0 29.442 0 30.4531C0 31.4642 0.401672 32.434 1.11665 33.149C1.83164 33.8639 2.80136 34.2656 3.8125 34.2656L70.859 34.2656L50.6795 54.4451C50.3154 54.7968 50.0249 55.2175 49.8251 55.6827C49.6253 56.1478 49.5201 56.6481 49.5157 57.1543C49.5113 57.6605 49.6078 58.1625 49.7995 58.6311C49.9912 59.0996 50.2743 59.5253 50.6322 59.8833C50.9902 60.2412 51.4159 60.5243 51.8844 60.716C52.353 60.9077 52.855 61.0042 53.3612 60.9998C53.8674 60.9954 54.3677 60.8902 54.8328 60.6904C55.298 60.4906 55.7187 60.2001 56.0704 59.836L82.7578 33.1485C83.4726 32.4336 83.8741 31.464 83.8741 30.4531C83.8741 29.4422 83.4726 28.4726 82.7578 27.7577Z" fill="#E8E3DF"/>
</svg>
