<svg width="59" height="84" viewBox="0 0 59 84" fill="none" xmlns="http://www.w3.org/2000/svg">
<path d="M32.1525 82.5571L57.9649 55.9344C58.6366 55.2171 59.0083 54.2564 58.9999 53.2592C58.9915 52.262 58.6036 51.3081 57.92 50.6029C57.2363 49.8978 56.3114 49.4978 55.3446 49.4891C54.3777 49.4805 53.4462 49.8638 52.7508 50.5566L33.2329 70.6872L33.2329 3.80325C33.2329 2.79456 32.8444 1.82719 32.1529 1.11394C31.4614 0.400697 30.5234 -1.24475e-06 29.5455 -1.2875e-06C28.5675 -1.33025e-06 27.6296 0.400697 26.938 1.11394C26.2465 1.82719 25.858 2.79456 25.858 3.80325L25.858 70.6872L6.34013 50.5566C5.99998 50.1933 5.59308 49.9036 5.14319 49.7043C4.6933 49.505 4.20943 49.4 3.71981 49.3957C3.23019 49.3913 2.74463 49.4875 2.29145 49.6787C1.83827 49.87 1.42656 50.1524 1.08033 50.5095C0.734098 50.8666 0.460289 51.2912 0.274879 51.7586C0.0894693 52.226 -0.00382866 52.7268 0.000426224 53.2318C0.0046811 53.7368 0.106408 54.2359 0.299666 54.6999C0.492923 55.1639 0.773839 55.5836 1.12603 55.9344L26.9384 82.5571C27.6299 83.2702 28.5677 83.6707 29.5455 83.6707C30.5232 83.6707 31.461 83.2702 32.1525 82.5571Z" fill="#E8E3DF"/>
</svg>
