<svg width="21" height="15" viewBox="0 0 21 15" fill="none" xmlns="http://www.w3.org/2000/svg">
<mask id="path-1-inside-1_10_279" fill="white">
<path d="M0.281648 6.80692L6.98027 0.261502C7.16073 0.0911886 7.4021 -0.00269056 7.65237 8.45021e-05C7.90265 0.00285956 8.14181 0.102067 8.31835 0.276338C8.49488 0.45061 8.59467 0.686002 8.59622 0.931816C8.59777 1.17763 8.50095 1.4142 8.32662 1.59057L3.26151 6.53984L20.0483 6.5827C20.3014 6.58335 20.544 6.68274 20.7225 6.85901C20.9011 7.03528 21.001 7.274 21.0004 7.52264C20.9998 7.77127 20.8986 8.00947 20.7191 8.18483C20.5397 8.36019 20.2966 8.45834 20.0435 8.45769L3.25672 8.41483L8.29649 13.3899C8.38744 13.4766 8.4599 13.5803 8.50963 13.6948C8.55937 13.8093 8.58538 13.9324 8.58617 14.0568C8.58695 14.1813 8.56248 14.3047 8.51419 14.4198C8.4659 14.5349 8.39476 14.6394 8.30491 14.7272C8.21506 14.815 8.1083 14.8843 7.99087 14.9312C7.87344 14.978 7.74769 15.0014 7.62094 15C7.4942 14.9986 7.36901 14.9724 7.25268 14.923C7.13634 14.8735 7.0312 14.8018 6.94337 14.7121L0.278263 8.13254C0.0997614 7.95628 -0.000158215 7.71761 0.000476516 7.46902C0.00111125 7.22043 0.102248 6.98227 0.281648 6.80692Z"/>
</mask>
<path d="M0.281648 6.80692L6.98027 0.261502C7.16073 0.0911886 7.4021 -0.00269056 7.65237 8.45021e-05C7.90265 0.00285956 8.14181 0.102067 8.31835 0.276338C8.49488 0.45061 8.59467 0.686002 8.59622 0.931816C8.59777 1.17763 8.50095 1.4142 8.32662 1.59057L3.26151 6.53984L20.0483 6.5827C20.3014 6.58335 20.544 6.68274 20.7225 6.85901C20.9011 7.03528 21.001 7.274 21.0004 7.52264C20.9998 7.77127 20.8986 8.00947 20.7191 8.18483C20.5397 8.36019 20.2966 8.45834 20.0435 8.45769L3.25672 8.41483L8.29649 13.3899C8.38744 13.4766 8.4599 13.5803 8.50963 13.6948C8.55937 13.8093 8.58538 13.9324 8.58617 14.0568C8.58695 14.1813 8.56248 14.3047 8.51419 14.4198C8.4659 14.5349 8.39476 14.6394 8.30491 14.7272C8.21506 14.815 8.1083 14.8843 7.99087 14.9312C7.87344 14.978 7.74769 15.0014 7.62094 15C7.4942 14.9986 7.36901 14.9724 7.25268 14.923C7.13634 14.8735 7.0312 14.8018 6.94337 14.7121L0.278263 8.13254C0.0997614 7.95628 -0.000158215 7.71761 0.000476516 7.46902C0.00111125 7.22043 0.102248 6.98227 0.281648 6.80692Z" fill="#FBF7F7"/>
<path d="M0.281648 6.80692L-24.0159 -18.0518L-24.0122 -18.0555L0.281648 6.80692ZM6.98027 0.261502L-17.3136 -24.6009L-17.0976 -24.8119L-16.878 -25.0192L6.98027 0.261502ZM8.32662 1.59057L33.0489 26.027L32.8365 26.2419L32.6204 26.453L8.32662 1.59057ZM3.26151 6.53984L3.17275 41.3008L-81.8291 41.0837L-21.0323 -18.3226L3.26151 6.53984ZM21.0004 7.52264L55.7613 7.61139L21.0004 7.52264ZM3.25672 8.41483L-21.1637 33.1529L-81.6564 -26.5631L3.34547 -26.3461L3.25672 8.41483ZM8.29649 13.3899L-15.6906 38.5484L-15.9091 38.3401L-16.124 38.128L8.29649 13.3899ZM6.94337 14.7121L31.3638 -10.026L31.5788 -9.81373L31.7901 -9.59779L6.94337 14.7121ZM0.278263 8.13254L-24.1422 32.8706L-24.1459 32.8669L0.278263 8.13254ZM-24.0122 -18.0555L-17.3136 -24.6009L31.2741 25.1239L24.5755 31.6694L-24.0122 -18.0555ZM-16.878 -25.0192C-10.0859 -31.4292 -1.12922 -34.8605 8.03778 -34.7588L7.26696 34.759C15.9334 34.8551 24.4073 31.6116 30.8386 25.5422L-16.878 -25.0192ZM8.03778 -34.7588C17.2052 -34.6572 26.0876 -31.0275 32.7388 -24.4617L-16.1021 25.0144C-9.80399 31.2317 -1.39986 34.6629 7.26696 34.759L8.03778 -34.7588ZM32.7388 -24.4617C39.4103 -17.8759 43.2964 -8.8481 43.3566 0.713022L-26.1641 1.15061C-26.1071 10.2201 -22.4205 18.7771 -16.1021 25.0144L32.7388 -24.4617ZM43.3566 0.713022C43.4168 10.2747 39.6439 19.3548 33.0489 26.027L-16.3957 -22.8459C-22.642 -16.5264 -26.2212 -7.91947 -26.1641 1.15061L43.3566 0.713022ZM32.6204 26.453L27.5553 31.4023L-21.0323 -18.3226L-15.9672 -23.2719L32.6204 26.453ZM3.35026 -28.2211L20.137 -28.1782L19.9595 41.3436L3.17275 41.3008L3.35026 -28.2211ZM20.137 -28.1782C29.4092 -28.1546 38.4158 -24.5199 45.143 -17.879L-3.69795 31.5971C2.67213 37.8854 11.1937 41.3213 19.9595 41.3436L20.137 -28.1782ZM45.143 -17.879C51.8914 -11.2173 55.786 -2.06071 55.7613 7.61139L-13.7605 7.43388C-13.784 16.6087 -10.0892 25.2878 -3.69795 31.5971L45.143 -17.879ZM55.7613 7.61139C55.7367 17.2835 51.7953 26.42 45.013 33.0473L-3.57469 -16.6776C-9.9981 -10.4011 -13.7371 -1.74095 -13.7605 7.43388L55.7613 7.61139ZM45.013 33.0473C38.2519 39.6537 29.2269 43.2423 19.9547 43.2186L20.1322 -26.3032C11.3664 -26.3256 2.82742 -22.9333 -3.57469 -16.6776L45.013 33.0473ZM19.9547 43.2186L3.16796 43.1758L3.34547 -26.3461L20.1322 -26.3032L19.9547 43.2186ZM27.6772 -16.3232L32.717 -11.3482L-16.124 38.128L-21.1637 33.1529L27.6772 -16.3232ZM32.2836 -11.7686C35.713 -8.49887 38.4807 -4.55654 40.3931 -0.15362L-23.3738 27.5431C-21.5609 31.717 -18.9381 35.4521 -15.6906 38.5484L32.2836 -11.7686ZM40.3931 -0.15362C42.3061 4.25077 43.3161 9.00901 43.3465 13.838L-26.1742 14.2756C-26.1454 18.8557 -25.1873 23.3678 -23.3738 27.5431L40.3931 -0.15362ZM43.3465 13.838C43.3769 18.6673 42.4268 23.439 40.5681 27.8688L-23.5397 0.970772C-25.3018 5.17039 -26.203 9.69534 -26.1742 14.2756L43.3465 13.838ZM40.5681 27.8688C38.71 32.2973 35.99 36.2759 32.5987 39.5896L-15.9889 -10.1353C-19.2005 -6.99715 -21.7782 -3.22751 -23.5397 0.970772L40.5681 27.8688ZM32.5987 39.5896C29.209 42.9018 25.2161 45.4848 20.8691 47.2187L-4.88732 -17.3563C-8.99954 -15.7161 -12.7789 -13.2718 -15.9889 -10.1353L32.5987 39.5896ZM20.8691 47.2187C16.5232 48.952 11.8905 49.8105 7.23553 49.7589L8.00635 -19.7589C3.60484 -19.8077 -0.77633 -18.9961 -4.88732 -17.3563L20.8691 47.2187ZM7.23553 49.7589C2.58032 49.7073 -2.03327 48.7462 -6.34118 46.9157L20.8465 -17.0698C16.7713 -18.8014 12.4081 -19.7101 8.00635 -19.7589L7.23553 49.7589ZM-6.34118 46.9157C-10.6502 45.0848 -14.5867 42.4119 -17.9034 39.022L31.7901 -9.59779C28.649 -12.8082 24.9229 -15.3378 20.8465 -17.0698L-6.34118 46.9157ZM-17.4771 39.4501L-24.1422 32.8706L24.6987 -16.6055L31.3638 -10.026L-17.4771 39.4501ZM-24.1459 32.8669C-30.8921 26.2053 -34.7851 17.0504 -34.7605 7.38026L34.7614 7.55777C34.7848 -1.61516 31.0916 -10.2928 24.7025 -16.6018L-24.1459 32.8669ZM-34.7605 7.38026C-34.7358 -2.28986 -30.796 -11.4248 -24.0159 -18.0518L24.5792 31.6657C31.0005 25.3894 34.738 16.7307 34.7614 7.55777L-34.7605 7.38026Z" fill="#FBF7F7" mask="url(#path-1-inside-1_10_279)"/>
</svg>
