<svg width="38" height="53" viewBox="0 0 38 53" fill="none" xmlns="http://www.w3.org/2000/svg">
<path d="M20.7083 51.5541L37.3333 34.9291C37.7659 34.4812 38.0053 33.8813 37.9999 33.2586C37.9945 32.6358 37.7447 32.0402 37.3044 31.5998C36.864 31.1595 36.2684 30.9097 35.6456 30.9043C35.0229 30.8989 34.423 31.1383 33.9751 31.5709L21.4042 44.1418L21.4042 2.375C21.4042 1.74511 21.154 1.14102 20.7086 0.695621C20.2632 0.250222 19.6591 -8.01707e-07 19.0292 -8.29241e-07C18.3993 -8.56774e-07 17.7952 0.250222 17.3498 0.69562C16.9044 1.14102 16.6542 1.74511 16.6542 2.375L16.6542 44.1418L4.08331 31.5709C3.86422 31.344 3.60215 31.1631 3.31239 31.0386C3.02264 30.9142 2.71099 30.8486 2.39564 30.8459C2.08028 30.8432 1.76755 30.9033 1.47567 31.0227C1.18379 31.1421 0.918616 31.3184 0.69562 31.5414C0.472624 31.7644 0.296271 32.0296 0.176856 32.3215C0.0574365 32.6134 -0.00265265 32.9261 8.6285e-05 33.2415C0.00282904 33.5568 0.0683465 33.8685 0.19282 34.1582C0.31729 34.448 0.498221 34.71 0.725054 34.9291L17.3501 51.5541C17.7954 51.9994 18.3994 52.2495 19.0292 52.2495C19.6589 52.2495 20.2629 51.9994 20.7083 51.5541Z" fill="#F0AE2C"/>
</svg>
