<svg width="17" height="15" viewBox="0 0 17 15" fill="none" xmlns="http://www.w3.org/2000/svg">
<path d="M16.8013 1.86579L15.8048 11.2767C15.7741 11.5256 15.6467 11.7542 15.4501 11.9133C15.2535 12.0724 15.0035 12.1493 14.7538 12.1274C14.5041 12.1055 14.2747 11.9865 14.1151 11.7962C13.9555 11.6059 13.8785 11.3593 13.9005 11.1097L14.654 3.99373L1.56017 14.7768C1.36271 14.9395 1.10988 15.0184 0.85731 14.9962C0.604742 14.9741 0.373124 14.8527 0.213408 14.6588C0.0536925 14.4648 -0.0210376 14.2142 0.00565795 13.9621C0.0323532 13.71 0.158287 13.477 0.355756 13.3143L13.4495 2.53122L6.3211 1.90618C6.19444 1.89728 6.07126 1.8633 5.95877 1.80622C5.84628 1.74914 5.74672 1.6701 5.6659 1.57372C5.58508 1.47733 5.52462 1.36552 5.48804 1.24482C5.45147 1.12412 5.43952 0.996949 5.45289 0.870717C5.46625 0.744487 5.50467 0.621727 5.56589 0.509603C5.62711 0.39748 5.70992 0.298236 5.80948 0.217665C5.90903 0.137093 6.02335 0.0768065 6.14575 0.040322C6.26815 0.00383743 6.39618 -0.00811397 6.52238 0.00516626L15.9497 0.831794C16.2023 0.853974 16.4338 0.975362 16.5935 1.16926C16.7532 1.36317 16.8279 1.61371 16.8013 1.86579Z" fill="#E8E3DF"/>
</svg>
