<svg width="21" height="20" viewBox="0 0 21 20" fill="none" xmlns="http://www.w3.org/2000/svg">
<path d="M11.9602 10C11.9602 11.0571 11.0999 11.9141 10.0387 11.9141C8.97745 11.9141 8.11719 11.0571 8.11719 10C8.11719 8.94287 8.97745 8.08594 10.0387 8.08594C11.0999 8.08594 11.9602 8.94287 11.9602 10Z" fill="#F0AE2C"/>
<path d="M14.5321 6.61295C14.4398 6.36362 14.2924 6.13794 14.1009 5.9527C13.915 5.76196 13.6886 5.61517 13.4381 5.52316C13.235 5.44458 12.9299 5.35104 12.3679 5.32556C11.7599 5.29794 11.5776 5.29199 10.0384 5.29199C8.49912 5.29199 8.31684 5.29779 7.70901 5.32541C7.14699 5.35104 6.8417 5.44458 6.63874 5.52316C6.38829 5.61517 6.16173 5.76196 5.97593 5.9527C5.78445 6.13794 5.63709 6.36346 5.54457 6.61295C5.46568 6.81528 5.37178 7.11938 5.3462 7.67923C5.31847 8.2847 5.3125 8.46628 5.3125 9.99963C5.3125 11.5328 5.31847 11.7144 5.3462 12.32C5.37178 12.8799 5.46568 13.1838 5.54457 13.3862C5.63709 13.6357 5.7843 13.8612 5.97577 14.0464C6.16173 14.2372 6.38814 14.3839 6.63859 14.476C6.8417 14.5547 7.14699 14.6482 7.70901 14.6737C8.31684 14.7013 8.49897 14.7071 10.0383 14.7071C11.5778 14.7071 11.76 14.7013 12.3677 14.6737C12.9297 14.6482 13.235 14.5547 13.4381 14.476C13.9409 14.2828 14.3382 13.887 14.5321 13.3862C14.611 13.1838 14.7049 12.8799 14.7307 12.32C14.7584 11.7144 14.7642 11.5328 14.7642 9.99963C14.7642 8.46628 14.7584 8.2847 14.7307 7.67923C14.7051 7.11938 14.6112 6.81528 14.5321 6.61295ZM10.0384 12.9481C8.40354 12.9481 7.07822 11.6281 7.07822 9.99948C7.07822 8.37091 8.40354 7.05087 10.0384 7.05087C11.6732 7.05087 12.9985 8.37091 12.9985 9.99948C12.9985 11.6281 11.6732 12.9481 10.0384 12.9481ZM13.1155 7.62338C12.7335 7.62338 12.4238 7.31485 12.4238 6.9343C12.4238 6.55374 12.7335 6.24521 13.1155 6.24521C13.4976 6.24521 13.8073 6.55374 13.8073 6.9343C13.8071 7.31485 13.4976 7.62338 13.1155 7.62338Z" fill="#F0AE2C"/>
<path d="M10.0389 0C4.4954 0 0 4.478 0 10C0 15.522 4.4954 20 10.0389 20C15.5823 20 20.0777 15.522 20.0777 10C20.0777 4.478 15.5823 0 10.0389 0ZM15.7686 12.3674C15.7407 12.9787 15.6431 13.396 15.5007 13.7613C15.2012 14.5326 14.5891 15.1424 13.8148 15.4407C13.4482 15.5826 13.0291 15.6796 12.4156 15.7076C11.8009 15.7355 11.6045 15.7422 10.039 15.7422C8.47335 15.7422 8.27713 15.7355 7.66226 15.7076C7.04877 15.6796 6.62967 15.5826 6.26311 15.4407C5.87831 15.2965 5.52998 15.0705 5.242 14.7783C4.94881 14.4916 4.72195 14.1444 4.5772 13.7613C4.43474 13.3961 4.33716 12.9787 4.30928 12.3676C4.28095 11.7551 4.27436 11.5594 4.27436 10C4.27436 8.44055 4.28095 8.24493 4.30913 7.6326C4.33701 7.02133 4.43443 6.604 4.57689 6.23871C4.72165 5.85556 4.94866 5.50842 5.242 5.22171C5.52983 4.9295 5.87831 4.70352 6.26295 4.55933C6.62967 4.41742 7.04862 4.32037 7.66226 4.29245C8.27697 4.26453 8.47335 4.25781 10.0389 4.25781C11.6044 4.25781 11.8007 4.26453 12.4155 4.2926C13.0291 4.32037 13.4481 4.41742 13.8148 4.55917C14.1994 4.70337 14.5479 4.9295 14.8359 5.22171C15.1291 5.50858 15.3561 5.85556 15.5007 6.23871C15.6433 6.604 15.7407 7.02133 15.7687 7.6326C15.7968 8.24493 15.8034 8.44055 15.8034 10C15.8034 11.5594 15.7968 11.7551 15.7686 12.3674Z" fill="#F0AE2C"/>
</svg>
